<?xml version="1.0" standalone="no"?>
<!DOCTYPE svg PUBLIC "-//W3C//DTD SVG 20010904//EN"
 "http://www.w3.org/TR/2001/REC-SVG-20010904/DTD/svg10.dtd">
<svg version="1.0" xmlns="http://www.w3.org/2000/svg"
 width="1549.000000pt" height="1536.000000pt" viewBox="0 0 1549.000000 1536.000000"
 preserveAspectRatio="xMidYMid meet">

<g transform="translate(0.000000,1536.000000) scale(0.100000,-0.100000)"
fill="#000000" stroke="none">
<path d="M15480 14220 c0 -6 -16 -42 -35 -81 -19 -39 -35 -77 -35 -83 0 -7
-37 -73 -81 -147 -45 -74 -90 -150 -101 -169 -31 -54 -72 -111 -112 -155 -20
-22 -43 -53 -50 -70 -8 -16 -43 -59 -77 -95 -34 -36 -78 -85 -98 -109 -20 -25
-54 -61 -76 -80 -22 -19 -63 -59 -90 -88 -28 -29 -54 -53 -59 -53 -4 0 -49
-36 -99 -81 -50 -44 -105 -86 -122 -94 -16 -7 -40 -22 -52 -34 -79 -75 -434
-271 -613 -337 -41 -15 -79 -31 -85 -35 -23 -15 -287 -99 -342 -108 -32 -6
-112 -21 -178 -35 -66 -14 -181 -32 -254 -41 -74 -9 -136 -17 -138 -19 -1 -1
48 -8 110 -14 61 -7 166 -23 232 -37 66 -13 132 -25 146 -25 34 0 165 -40 314
-96 66 -25 140 -52 165 -61 73 -25 447 -214 460 -232 3 -4 46 -33 95 -66 108
-71 245 -175 245 -185 0 -4 19 -20 42 -35 49 -32 298 -276 298 -292 0 -6 15
-24 33 -40 40 -35 137 -154 137 -168 0 -6 9 -18 19 -27 29 -25 121 -161 169
-252 24 -44 47 -83 51 -86 12 -8 108 -195 115 -223 3 -14 22 -59 40 -99 l35
-73 0 1968 c1 1082 -1 1967 -4 1967 -3 0 -5 -5 -5 -10z"/>
<path d="M9383 8924 c-15 -174 -51 -396 -89 -534 -14 -52 -34 -129 -44 -170
-25 -104 -70 -219 -191 -488 -10 -23 -50 -94 -89 -158 -38 -63 -70 -117 -70
-121 0 -9 -112 -167 -137 -192 -13 -14 -30 -38 -38 -55 -9 -18 -35 -52 -59
-77 -24 -26 -73 -80 -108 -120 -34 -41 -79 -87 -98 -104 -19 -16 -59 -56 -89
-87 -30 -32 -59 -58 -65 -58 -6 0 -32 -19 -56 -43 -54 -51 -124 -107 -166
-133 -18 -10 -74 -48 -125 -84 -52 -36 -121 -79 -154 -96 -33 -17 -109 -57
-168 -88 -60 -32 -143 -71 -185 -86 -42 -16 -119 -45 -170 -65 -121 -46 -253
-86 -322 -96 -30 -4 -86 -14 -125 -23 -38 -8 -94 -18 -122 -22 -42 -5 -53 -10
-53 -25 0 -11 9 -20 23 -23 12 -2 96 -19 187 -36 91 -17 188 -35 215 -40 65
-10 189 -51 330 -108 61 -24 134 -53 163 -63 59 -20 295 -147 300 -160 2 -5
10 -9 19 -9 14 0 98 -53 203 -129 30 -22 60 -40 65 -41 6 0 26 -15 45 -33 20
-17 65 -54 100 -82 69 -54 322 -302 383 -375 20 -25 63 -79 94 -120 32 -41 61
-77 65 -78 5 -2 27 -36 49 -75 23 -40 49 -81 59 -92 9 -11 37 -54 61 -95 24
-41 47 -76 51 -78 5 -2 8 -10 8 -18 0 -8 24 -63 54 -122 72 -141 107 -219 116
-262 5 -19 27 -88 49 -153 43 -123 103 -353 116 -447 l8 -55 17 90 c27 142 66
293 110 422 22 66 40 126 40 132 0 18 83 204 129 291 22 41 41 80 41 86 0 13
100 181 135 228 12 17 30 48 40 68 9 20 27 48 38 60 41 45 127 158 127 167 0
6 6 14 13 18 6 4 29 28 51 53 44 52 287 300 293 300 3 0 45 35 95 78 49 42
104 85 122 95 17 11 63 43 101 72 39 29 98 68 132 87 34 18 115 63 180 100 65
36 132 70 148 73 17 4 39 13 50 20 11 6 54 25 95 40 41 16 80 32 85 35 17 12
227 77 285 89 30 6 116 24 190 40 74 16 185 34 245 41 170 18 186 25 80 33
-122 10 -340 43 -450 69 -96 22 -333 95 -350 108 -5 4 -35 15 -65 25 -78 25
-222 90 -312 141 -43 24 -83 44 -91 44 -7 0 -22 7 -32 15 -24 19 -150 103
-243 162 -36 22 -80 55 -96 71 -17 16 -60 52 -96 79 -62 47 -186 159 -236 213
-115 123 -184 202 -208 237 -15 23 -45 61 -67 85 -21 24 -55 70 -75 103 -20
33 -63 101 -95 150 -33 50 -67 106 -76 125 -8 19 -48 103 -88 185 -40 83 -78
168 -85 190 -6 22 -16 54 -22 70 -115 339 -149 494 -168 770 -6 88 -12 171
-13 185 -1 14 -8 -43 -14 -126z"/>
<path d="M15448 7939 c-21 -45 -38 -87 -38 -95 0 -18 -67 -144 -131 -246 -27
-42 -49 -82 -49 -88 0 -14 -187 -276 -248 -348 -82 -97 -96 -112 -241 -258
-80 -79 -150 -144 -157 -144 -7 0 -19 -8 -26 -18 -20 -27 -142 -122 -243 -187
-49 -33 -99 -67 -110 -76 -39 -34 -421 -227 -466 -235 -19 -4 -38 -10 -44 -14
-32 -24 -375 -133 -470 -150 -166 -29 -319 -50 -398 -56 -48 -4 -86 -8 -84
-10 2 -2 46 -8 98 -14 142 -15 280 -39 419 -71 69 -16 148 -34 175 -40 53 -13
202 -67 272 -99 24 -11 45 -20 47 -20 18 0 226 -97 291 -135 44 -27 96 -55
115 -64 39 -18 178 -110 226 -150 18 -14 50 -37 73 -51 23 -13 56 -39 74 -57
17 -18 57 -52 86 -75 63 -49 271 -252 271 -265 0 -4 34 -44 75 -88 41 -44 81
-93 89 -110 8 -16 28 -45 45 -64 73 -81 258 -396 318 -539 24 -59 50 -118 56
-132 13 -28 19 1173 15 2980 l-3 999 -37 -80z"/>
<path d="M9421 2378 c-2 -80 -112 -506 -150 -575 -5 -11 -15 -41 -21 -66 -12
-55 -89 -226 -157 -352 -6 -11 -17 -35 -24 -53 -7 -19 -17 -39 -23 -45 -7 -7
-33 -47 -59 -90 -26 -43 -56 -88 -67 -99 -11 -12 -20 -26 -20 -31 0 -10 -56
-93 -79 -116 -32 -33 -91 -110 -91 -118 0 -5 -38 -46 -85 -93 -47 -47 -85 -90
-85 -97 0 -7 -24 -30 -52 -52 -29 -21 -75 -62 -103 -91 -27 -29 -65 -63 -85
-75 -19 -12 -57 -42 -85 -66 -64 -57 -121 -99 -134 -99 -5 0 -22 -11 -38 -24
-49 -41 -183 -122 -293 -178 l-105 -53 887 -3 c489 -1 1286 -1 1773 0 l884 3
-77 39 c-42 22 -90 46 -107 54 -45 23 -230 144 -233 154 -2 4 -10 8 -17 8 -15
0 -127 80 -165 118 -14 13 -43 36 -65 50 -80 51 -427 400 -446 449 -4 10 -21
34 -39 53 -42 46 -103 132 -176 250 -32 52 -61 97 -65 100 -14 12 -168 330
-202 420 -63 165 -137 419 -172 595 -14 71 -24 105 -24 83z"/>
<path d="M3196 2118 c-3 -7 -21 -60 -41 -118 -20 -58 -46 -134 -58 -170 -21
-68 -192 -412 -243 -490 -16 -25 -44 -65 -62 -89 -18 -24 -39 -58 -46 -75 -8
-17 -23 -41 -35 -54 -12 -12 -59 -68 -104 -125 -107 -134 -301 -328 -461 -461
-71 -58 -132 -106 -137 -106 -9 0 -109 -68 -119 -81 -11 -14 -141 -89 -154
-89 -8 0 -16 -4 -18 -8 -4 -10 -258 -144 -303 -160 -102 -36 -225 -85 -225
-88 0 -2 844 -4 1876 -4 l1876 0 -124 64 c-69 35 -168 93 -220 130 -53 36
-101 66 -106 66 -6 0 -19 8 -29 18 -10 10 -49 42 -88 72 -38 29 -77 59 -85 66
-8 7 -42 37 -75 65 -64 55 -226 217 -286 286 -122 138 -329 425 -329 454 0 7
-10 26 -23 43 -27 36 -147 261 -147 276 0 5 -11 33 -24 62 -70 153 -131 330
-158 458 -10 47 -18 66 -31 68 -9 2 -19 -2 -21 -10z"/>
<path d="M15480 1700 c0 -5 -16 -43 -35 -84 -19 -41 -35 -80 -35 -86 0 -15
-94 -189 -142 -264 -21 -33 -38 -64 -38 -70 0 -6 -17 -33 -38 -61 -20 -27 -59
-81 -86 -120 -53 -75 -171 -223 -191 -240 -7 -6 -35 -36 -62 -69 -67 -78 -246
-240 -368 -334 -55 -42 -108 -85 -117 -94 -10 -10 -23 -18 -28 -18 -12 0 -115
-66 -143 -92 -11 -9 -86 -50 -168 -92 l-149 -76 805 0 805 0 0 855 c0 470 -2
855 -5 855 -3 0 -5 -4 -5 -10z"/>
</g>
</svg>
